<svg width="146" height="32" viewBox="0 0 146 32" fill="none" xmlns="http://www.w3.org/2000/svg">
<circle cx="16" cy="16" r="16" fill="#0F172A"/>
<path d="M8.856 8.968L6.96 8.656V7.168H12.408L19.56 17.968L20.904 20.704V8.968L18.84 8.656V7.168H24.792V8.656L22.944 8.968V25H20.04L12.576 13.648L10.896 10.48V23.32L13.32 23.56V25H6.96V23.56L8.856 23.32V8.968Z" fill="white"/>
<path d="M42.856 8.968L40.96 8.656V7.168H46.408L53.56 17.968L54.904 20.704V8.968L52.84 8.656V7.168H58.792V8.656L56.944 8.968V25H54.04L46.576 13.648L44.896 10.48V23.32L47.32 23.56V25H40.96V23.56L42.856 23.32V8.968ZM59.1456 18.352C59.1456 16.848 59.4416 15.568 60.0336 14.512C60.6416 13.456 61.4496 12.664 62.4576 12.136C63.4656 11.592 64.5616 11.32 65.7456 11.32C67.7616 11.32 69.3136 11.944 70.4016 13.192C71.5056 14.424 72.0576 16.104 72.0576 18.232C72.0576 19.752 71.7536 21.048 71.1456 22.12C70.5536 23.176 69.7536 23.968 68.7456 24.496C67.7536 25.008 66.6576 25.264 65.4576 25.264C63.4576 25.264 61.9056 24.648 60.8016 23.416C59.6976 22.168 59.1456 20.48 59.1456 18.352ZM65.6496 23.704C67.4576 23.704 68.3616 21.96 68.3616 18.472C68.3616 16.648 68.1456 15.264 67.7136 14.32C67.2816 13.36 66.5776 12.88 65.6016 12.88C63.7456 12.88 62.8176 14.624 62.8176 18.112C62.8176 19.936 63.0416 21.328 63.4896 22.288C63.9536 23.232 64.6736 23.704 65.6496 23.704ZM73.0394 18.352C73.0394 16.848 73.3354 15.568 73.9274 14.512C74.5354 13.456 75.3434 12.664 76.3514 12.136C77.3594 11.592 78.4554 11.32 79.6394 11.32C81.6554 11.32 83.2074 11.944 84.2954 13.192C85.3994 14.424 85.9514 16.104 85.9514 18.232C85.9514 19.752 85.6474 21.048 85.0394 22.12C84.4474 23.176 83.6474 23.968 82.6394 24.496C81.6474 25.008 80.5514 25.264 79.3514 25.264C77.3514 25.264 75.7994 24.648 74.6954 23.416C73.5914 22.168 73.0394 20.48 73.0394 18.352ZM79.5434 23.704C81.3514 23.704 82.2554 21.96 82.2554 18.472C82.2554 16.648 82.0394 15.264 81.6074 14.32C81.1754 13.36 80.4714 12.88 79.4954 12.88C77.6394 12.88 76.7114 14.624 76.7114 18.112C76.7114 19.936 76.9354 21.328 77.3834 22.288C77.8474 23.232 78.5674 23.704 79.5434 23.704ZM85.8531 5.848L90.2451 5.32H90.2931L90.9651 5.776V12.856C91.3971 12.424 91.9251 12.064 92.5491 11.776C93.1891 11.472 93.8771 11.32 94.6131 11.32C96.1491 11.32 97.3971 11.864 98.3571 12.952C99.3331 14.024 99.8211 15.672 99.8211 17.896C99.8211 19.272 99.5331 20.52 98.9571 21.64C98.3811 22.76 97.5491 23.648 96.4611 24.304C95.3891 24.944 94.1411 25.264 92.7171 25.264C91.4531 25.264 90.3571 25.16 89.4291 24.952C88.5011 24.728 87.9091 24.528 87.6531 24.352V7.384L85.8531 7.096V5.848ZM93.3411 13.432C92.8611 13.432 92.4051 13.544 91.9731 13.768C91.5571 13.976 91.2211 14.216 90.9651 14.488V23.248C91.0611 23.424 91.2851 23.568 91.6371 23.68C91.9891 23.792 92.3891 23.848 92.8371 23.848C93.8611 23.848 94.6771 23.376 95.2851 22.432C95.9091 21.472 96.2211 20.056 96.2211 18.184C96.2211 16.568 95.9571 15.376 95.4291 14.608C94.9011 13.824 94.2051 13.432 93.3411 13.432ZM103.425 9.472C102.849 9.472 102.393 9.304 102.057 8.968C101.721 8.632 101.553 8.2 101.553 7.672C101.553 7.064 101.745 6.56 102.129 6.16C102.513 5.76 103.025 5.56 103.665 5.56C104.305 5.56 104.793 5.736 105.129 6.088C105.465 6.424 105.633 6.848 105.633 7.36C105.633 8 105.441 8.512 105.057 8.896C104.673 9.28 104.137 9.472 103.449 9.472H103.425ZM102.153 13.936L100.449 13.48V11.872L104.841 11.344H104.889L105.561 11.824V23.368L107.169 23.56V25H100.473V23.56L102.153 23.344V13.936ZM118.513 25.24C117.985 25.24 117.601 25.128 117.361 24.904C117.121 24.68 117.001 24.344 117.001 23.896V23.248C116.569 23.776 115.961 24.248 115.177 24.664C114.393 25.064 113.609 25.264 112.825 25.264C111.289 25.264 110.193 24.872 109.537 24.088C108.881 23.288 108.553 21.976 108.553 20.152V13.384L107.353 13.048V11.68L111.433 11.368H111.457L111.937 11.704V20.152C111.937 21.32 112.081 22.136 112.369 22.6C112.657 23.064 113.193 23.296 113.977 23.296C114.921 23.296 115.801 22.928 116.617 22.192V13.384L115.009 13.024V11.68L119.353 11.368H119.401L119.977 11.704V23.512H121.321L121.297 24.88C121.233 24.896 120.937 24.96 120.409 25.072C119.881 25.184 119.249 25.24 118.513 25.24ZM121.818 23.56L123.162 23.344V13.936L121.626 13.504V11.848L125.61 11.344L125.898 11.536L126.258 12.328V13.336C126.786 12.824 127.538 12.376 128.514 11.992C129.506 11.592 130.362 11.392 131.082 11.392C131.946 11.392 132.642 11.536 133.17 11.824C133.714 12.112 134.122 12.56 134.394 13.168C134.922 12.688 135.618 12.272 136.482 11.92C137.346 11.568 138.194 11.392 139.026 11.392C140.45 11.392 141.458 11.808 142.05 12.64C142.642 13.472 142.938 14.832 142.938 16.72V23.344L144.498 23.56V25H138.282V23.56L139.53 23.344V16.816C139.53 15.568 139.378 14.696 139.074 14.2C138.786 13.688 138.226 13.432 137.394 13.432C136.946 13.432 136.482 13.536 136.002 13.744C135.538 13.936 135.122 14.176 134.754 14.464C134.866 15.072 134.922 15.832 134.922 16.744V23.344L136.41 23.56V25H130.146V23.56L131.466 23.344V16.744C131.466 15.912 131.41 15.264 131.298 14.8C131.202 14.32 131.01 13.976 130.722 13.768C130.434 13.544 130.018 13.432 129.474 13.432C128.962 13.432 128.45 13.552 127.938 13.792C127.442 14.016 126.994 14.288 126.594 14.608V23.344L128.01 23.56V25H121.818V23.56Z" fill="#0F172A"/>
</svg>
